<svg xmlns="http://www.w3.org/2000/svg" xmlns:xlink="http://www.w3.org/1999/xlink" width="20" height="20" viewBox="0 0 20 20">
  <defs>
    <linearGradient id="linear-gradient" x1="0.119" y1="0.881" x2="0.83" y2="0.17" gradientUnits="objectBoundingBox">
      <stop offset="0" stop-color="#fee411"/>
      <stop offset="0.052" stop-color="#fedb16"/>
      <stop offset="0.138" stop-color="#fec125"/>
      <stop offset="0.248" stop-color="#fe983d"/>
      <stop offset="0.376" stop-color="#fe5f5e"/>
      <stop offset="0.5" stop-color="#fe2181"/>
      <stop offset="1" stop-color="#9000dc"/>
    </linearGradient>
  </defs>
  <g id="_003-instagram" data-name="003-instagram" transform="translate(0.289 0.141)">
    <circle id="Ellipse_3" data-name="Ellipse 3" cx="10" cy="10" r="10" transform="translate(-0.289 -0.141)" fill="url(#linear-gradient)"/>
    <g id="Group_1" data-name="Group 1" transform="translate(4.998 4.984)">
      <path id="Path_3" data-name="Path 3" d="M137.835,131h-3.725a3.013,3.013,0,0,0-3.011,3.011v3.725a3.013,3.013,0,0,0,3.011,3.011h3.725a3.013,3.013,0,0,0,3.011-3.011v-3.725A3.013,3.013,0,0,0,137.835,131Zm1.923,6.739a1.928,1.928,0,0,1-1.927,1.927h-3.725a1.928,1.928,0,0,1-1.927-1.927v-3.725a1.928,1.928,0,0,1,1.927-1.927h3.725a1.928,1.928,0,0,1,1.927,1.927Z" transform="translate(-131.1 -131)" fill="#fff"/>
      <path id="Path_4" data-name="Path 4" d="M194.592,192.1a2.492,2.492,0,1,0,2.492,2.492A2.5,2.5,0,0,0,194.592,192.1Zm0,4.005a1.513,1.513,0,1,1,1.513-1.513A1.515,1.515,0,0,1,194.592,196.105Z" transform="translate(-189.721 -189.717)" fill="#fff"/>
      <circle id="Ellipse_4" data-name="Ellipse 4" cx="0.421" cy="0.421" r="0.421" transform="matrix(0.987, -0.16, 0.16, 0.987, 7.003, 1.892)" fill="#fff"/>
    </g>
  </g>
</svg>
