<svg id="dollar" xmlns="http://www.w3.org/2000/svg" width="19.694" height="19.694" viewBox="0 0 19.694 19.694">
  <path id="Path_149" data-name="Path 149" d="M9.885,0A9.881,9.881,0,0,0,0,9.808a9.947,9.947,0,0,0,9.885,9.885A9.847,9.847,0,0,0,9.885,0Z" fill="#fedb41"/>
  <path id="Path_150" data-name="Path 150" d="M266.809,9.808A9.881,9.881,0,0,1,257,19.694V0A9.815,9.815,0,0,1,266.809,9.808Z" transform="translate(-247.115)" fill="#fc3"/>
  <path id="Path_151" data-name="Path 151" d="M67.578,60a7.539,7.539,0,1,0,7.5,7.5A7.581,7.581,0,0,0,67.578,60Z" transform="translate(-57.692 -57.692)" fill="#fea832"/>
  <path id="Path_152" data-name="Path 152" d="M264.5,67.5a7.581,7.581,0,0,1-7.5,7.578V60A7.515,7.515,0,0,1,264.5,67.5Z" transform="translate(-247.115 -57.692)" fill="#fe9923"/>
  <path id="Path_153" data-name="Path 153" d="M184.116,124.616h-.577v-2.308h.577a.571.571,0,0,1,.577.577.577.577,0,0,0,1.154,0,1.729,1.729,0,0,0-1.731-1.731h-.577v-.577a.577.577,0,1,0-1.154,0v.577h-.654A1.729,1.729,0,0,0,180,122.885v1.154a1.729,1.729,0,0,0,1.731,1.731h.654v2.385h-.654a.571.571,0,0,1-.577-.577.577.577,0,0,0-1.154,0,1.729,1.729,0,0,0,1.731,1.731h.654v.577a.577.577,0,0,0,1.154,0v-.577h.577a1.729,1.729,0,0,0,1.731-1.731v-1.231A1.729,1.729,0,0,0,184.116,124.616Zm-1.731,0h-.654a.571.571,0,0,1-.577-.577v-1.154a.571.571,0,0,1,.577-.577h.654Zm2.308,2.962a.571.571,0,0,1-.577.577h-.577V125.77h.577a.571.571,0,0,1,.577.577Z" transform="translate(-173.076 -115.384)" fill="#fedb41"/>
  <path id="Path_154" data-name="Path 154" d="M258.154,124.616h-.577v-2.308h.577a.571.571,0,0,1,.577.577.577.577,0,0,0,1.154,0,1.729,1.729,0,0,0-1.731-1.731h-.577v-.577A.557.557,0,0,0,257,120v10.462a.556.556,0,0,0,.577-.577v-.577h.577a1.729,1.729,0,0,0,1.731-1.731v-1.231A1.729,1.729,0,0,0,258.154,124.616Zm.577,2.962a.571.571,0,0,1-.577.577h-.577V125.77h.577a.571.571,0,0,1,.577.577Z" transform="translate(-247.115 -115.384)" fill="#fc3"/>
</svg>
