<svg xmlns="http://www.w3.org/2000/svg" width="19.694" height="19.697" viewBox="0 0 19.694 19.697">
  <g id="Page-1" transform="translate(0 0.008)">
    <g id="_039---Internet-News" data-name="039---Internet-News" transform="translate(0 -0.008)">
      <path id="Shape" d="M19.694,10.842c0,.115,0,.227-.01.34a9.623,9.623,0,0,1-1.036,4.075c-.112.231-.238.458-.37.679a9.853,9.853,0,0,1-16.862,0c-.132-.221-.258-.448-.37-.679A9.623,9.623,0,0,1,.01,11.181C0,11.069,0,10.957,0,10.842s0-.227.01-.34A9.711,9.711,0,0,1,1.222,6.088c.126-.231.261-.458.411-.679A9.852,9.852,0,0,1,7.052,1.4l0,0a9.853,9.853,0,0,1,11,4.013c.149.221.285.448.411.679A9.711,9.711,0,0,1,19.684,10.5C19.691,10.614,19.694,10.726,19.694,10.842Z" transform="translate(0 -0.992)" fill="#67b9cc"/>
      <g id="Group_7" data-name="Group 7" transform="translate(0 0.003)">
        <path id="Shape-2" data-name="Shape" d="M18.621,36.3a13.239,13.239,0,0,0,.693-3.4l-.676-.048A12.5,12.5,0,0,1,17.9,36.3H15.263a24.2,24.2,0,0,0,.3-2.7l-.676-.041a24.322,24.322,0,0,1-.316,2.74h-2.35V34.259h-.679V36.3H9.192A23.381,23.381,0,0,1,8.9,33.889l-.679.051c.058.795.153,1.589.282,2.356H5.874a11.736,11.736,0,0,1-.523-1.8V32.9H4.672v1.633a.46.46,0,0,0,.007.068A12.53,12.53,0,0,0,5.148,36.3H3.08c.112.231.238.458.37.679H5.409a8.8,8.8,0,0,0,3.677,4.35,9.739,9.739,0,0,0,2.794.4,9.911,9.911,0,0,0,2.839-.414,8.729,8.729,0,0,0,3.64-4.339h1.952c.132-.221.258-.448.37-.679Zm-12.465.679H8.628a10.417,10.417,0,0,0,1.6,4.126A7.5,7.5,0,0,1,6.156,36.976Zm5.385,4.336c-.818-.34-1.688-1.871-2.217-4.336h2.217Zm.679,0V36.976h2.221C13.915,39.447,13.049,40.975,12.221,41.312Zm1.277-.19a10.183,10.183,0,0,0,1.64-4.146h2.486A7.38,7.38,0,0,1,13.5,41.121Z" transform="translate(-2.034 -22.035)" fill="#3b97d3"/>
        <path id="Shape-3" data-name="Shape" d="M20.849,6.093c-.126-.231-.261-.458-.411-.679h-1.9A8.664,8.664,0,0,0,15.009,1.4a9.9,9.9,0,0,0-5.575,0l0,0a8.669,8.669,0,0,0-3.521,4.01h-1.9c-.149.221-.285.448-.411.679H5.62a12.529,12.529,0,0,0-.6,2.034.46.46,0,0,0-.007.068v2.312H5.7V8.229a12.048,12.048,0,0,1,.649-2.136H8.907a23.863,23.863,0,0,0-.343,2.7l.679.051A22.983,22.983,0,0,1,9.6,6.093h2.285V8.47h.679V6.093h2.285a22.983,22.983,0,0,1,.357,2.747l.679-.051a23.863,23.863,0,0,0-.343-2.7H18.1a12.215,12.215,0,0,1,.9,4.092l.679-.034a12.991,12.991,0,0,0-.849-4.058ZM9.043,5.414H6.656a7.336,7.336,0,0,1,3.915-3.786A9.974,9.974,0,0,0,9.043,5.414Zm2.842,0H9.746c.533-2.265,1.358-3.671,2.139-4Zm.679,0v-4c.781.326,1.606,1.732,2.139,4Zm2.842,0a9.951,9.951,0,0,0-1.528-3.786A7.335,7.335,0,0,1,17.79,5.414Z" transform="translate(-2.378 -1)" fill="#3b97d3"/>
        <path id="Shape-4" data-name="Shape" d="M54.037,29.34c0,.115,0,.227-.01.34H52V29h2.027C54.034,29.112,54.037,29.224,54.037,29.34Z" transform="translate(-34.343 -19.493)" fill="#3b97d3"/>
        <path id="Shape-5" data-name="Shape" d="M2.037,29v.679H.01C0,29.567,0,29.455,0,29.34s0-.227.01-.34Z" transform="translate(0 -19.493)" fill="#3b97d3"/>
      </g>
      <rect id="Rectangle-path" width="15.619" height="5.433" rx="2.716" transform="translate(2.037 7.133)" fill="#ff5364"/>
      <path id="Shape-6" data-name="Shape" d="M42.018,26.358a.34.34,0,1,1,.294-.509.34.34,0,0,0,.588-.34,1.019,1.019,0,1,0-.882,1.528.34.34,0,1,1-.294.509.34.34,0,0,0-.588.34,1.019,1.019,0,1,0,.882-1.528Z" transform="translate(-27.078 -16.848)" fill="#ecf0f1"/>
      <path id="Shape-7" data-name="Shape" d="M22.7,25.679a.34.34,0,1,0,0-.679H21.679a.679.679,0,0,0-.679.679v2.037a.679.679,0,0,0,.679.679H22.7a.34.34,0,1,0,0-.679H21.679v-.679h.679a.34.34,0,0,0,0-.679h-.679v-.679Z" transform="translate(-13.869 -16.848)" fill="#ecf0f1"/>
      <path id="Shape-8" data-name="Shape" d="M32.116,25a.34.34,0,0,0-.39.279l-.31,1.87-.43-.645a.353.353,0,0,0-.565,0l-.43.645-.311-1.87a.34.34,0,0,0-.67.112l.453,2.716a.34.34,0,0,0,.617.132l.622-.935.623.934a.34.34,0,0,0,.617-.132l.453-2.716A.34.34,0,0,0,32.116,25Z" transform="translate(-19.158 -16.848)" fill="#ecf0f1"/>
      <path id="Shape-9" data-name="Shape" d="M14.037,25a.34.34,0,0,0-.34.34v1.525l-1.056-1.7a.34.34,0,0,0-.628.177L12,28.054a.34.34,0,0,0,.679,0l.007-1.535,1.062,1.713a.34.34,0,0,0,.628-.179V25.339A.34.34,0,0,0,14.037,25Z" transform="translate(-7.925 -16.848)" fill="#ecf0f1"/>
    </g>
  </g>
</svg>
