<svg xmlns="http://www.w3.org/2000/svg" width="20" height="20" viewBox="0 0 20 20">
  <g id="_001-line" data-name="001-line" transform="translate(0.141 0.141)">
    <circle id="Ellipse_1" data-name="Ellipse 1" cx="10" cy="10" r="10" transform="translate(-0.141 -0.141)" fill="#4caf50"/>
    <path id="Path_1" data-name="Path 1" d="M136.87,137.6c-2.383,0-5.87,1.39-5.87,4.793,0,3.711,3.788,4.589,5.071,4.854.743.152-.362,1.708.517,1.575.832-.128,5.532-2.97,6.1-5.936C143.239,139.982,140.25,137.6,136.87,137.6Zm-2.2,6.226a.264.264,0,0,1-.193.066h-1.114a.3.3,0,0,1-.24-.085.442.442,0,0,1-.075-.28v-2.263a.441.441,0,0,1,.071-.27.218.218,0,0,1,.183-.09.226.226,0,0,1,.188.09.441.441,0,0,1,.07.27v2.14h.917a.236.236,0,0,1,.259.247A.245.245,0,0,1,134.666,143.826Zm1.058-.247a.447.447,0,0,1-.07.275.221.221,0,0,1-.188.09.218.218,0,0,1-.183-.09.441.441,0,0,1-.071-.27v-2.316a.441.441,0,0,1,.071-.27.218.218,0,0,1,.183-.09.226.226,0,0,1,.188.09.441.441,0,0,1,.07.27Zm2.7-.024c0,.256-.094.389-.277.389a.312.312,0,0,1-.122-.024.29.29,0,0,1-.1-.071.6.6,0,0,1-.089-.119c-.028-.043-.056-.09-.085-.138l-.964-1.713V143.6a.427.427,0,0,1-.066.256.215.215,0,0,1-.174.085.209.209,0,0,1-.174-.085.421.421,0,0,1-.066-.251v-2.268a.747.747,0,0,1,.028-.228.309.309,0,0,1,.108-.147.267.267,0,0,1,.165-.057.288.288,0,0,1,.117.024.309.309,0,0,1,.085.071.59.59,0,0,1,.075.114c.023.047.052.095.08.147l.987,1.732v-1.751a.429.429,0,0,1,.061-.256.2.2,0,0,1,.169-.085.2.2,0,0,1,.174.085.427.427,0,0,1,.066.256v2.311Zm2.355.27a.248.248,0,0,1-.183.066H139.3a.3.3,0,0,1-.24-.085.442.442,0,0,1-.075-.28v-2.211a.524.524,0,0,1,.033-.209.233.233,0,0,1,.1-.119.4.4,0,0,1,.179-.038h1.25a.246.246,0,0,1,.183.062.227.227,0,0,1,.061.166.22.22,0,0,1-.061.166.239.239,0,0,1-.183.062H139.5v.721h1.015a.217.217,0,0,1,.174.062.233.233,0,0,1,.056.161.225.225,0,0,1-.056.161.228.228,0,0,1-.179.062H139.5v.835h1.09a.248.248,0,0,1,.183.066.235.235,0,0,1,.061.176A.214.214,0,0,1,140.781,143.826Z" transform="translate(-127.016 -133.358)" fill="#fff"/>
  </g>
</svg>
